<svg class="main-svg" xmlns="http://www.w3.org/2000/svg" xmlns:xlink="http://www.w3.org/1999/xlink" width="2200" height="1000" style="" viewBox="0 0 1100 500"><rect x="0" y="0" width="1100" height="500" style="fill: rgb(255, 255, 255); fill-opacity: 1;"/><defs id="defs-607348"><g class="clips"><clipPath id="clip607348xyplot" class="plotclip"><rect width="1025" height="385"/></clipPath><clipPath class="axesclip" id="clip607348x"><rect x="60" y="0" width="1025" height="500"/></clipPath><clipPath class="axesclip" id="clip607348y"><rect x="0" y="50" width="1100" height="385"/></clipPath><clipPath class="axesclip" id="clip607348xy"><rect x="60" y="50" width="1025" height="385"/></clipPath></g><g class="gradients"/><g class="patterns"/></defs><g class="bglayer"/><g class="layer-below"><g class="imagelayer"/><g class="shapelayer"/></g><g class="cartesianlayer"><g class="subplot xy"><g class="layer-subplot"><g class="shapelayer"/><g class="imagelayer"/></g><g class="minor-gridlayer"><g class="x"/><g class="y"/></g><g class="gridlayer"><g class="x"><path class="xgrid crisp" transform="translate(189.83,0)" d="M0,50v385" style="stroke: rgb(0, 0, 0); stroke-opacity: 0.05; stroke-width: 1px;"/><path class="xgrid crisp" transform="translate(326.5,0)" d="M0,50v385" style="stroke: rgb(0, 0, 0); stroke-opacity: 0.05; stroke-width: 1px;"/><path class="xgrid crisp" transform="translate(463.17,0)" d="M0,50v385" style="stroke: rgb(0, 0, 0); stroke-opacity: 0.05; stroke-width: 1px;"/><path class="xgrid crisp" transform="translate(599.83,0)" d="M0,50v385" style="stroke: rgb(0, 0, 0); stroke-opacity: 0.05; stroke-width: 1px;"/><path class="xgrid crisp" transform="translate(736.5,0)" d="M0,50v385" style="stroke: rgb(0, 0, 0); stroke-opacity: 0.05; stroke-width: 1px;"/><path class="xgrid crisp" transform="translate(873.17,0)" d="M0,50v385" style="stroke: rgb(0, 0, 0); stroke-opacity: 0.05; stroke-width: 1px;"/><path class="xgrid crisp" transform="translate(1009.83,0)" d="M0,50v385" style="stroke: rgb(0, 0, 0); stroke-opacity: 0.05; stroke-width: 1px;"/></g><g class="y"><path class="ygrid crisp" transform="translate(0,358)" d="M60,0h1025" style="stroke: rgb(0, 0, 0); stroke-opacity: 0.05; stroke-width: 1px;"/><path class="ygrid crisp" transform="translate(0,281)" d="M60,0h1025" style="stroke: rgb(0, 0, 0); stroke-opacity: 0.05; stroke-width: 1px;"/><path class="ygrid crisp" transform="translate(0,204)" d="M60,0h1025" style="stroke: rgb(0, 0, 0); stroke-opacity: 0.05; stroke-width: 1px;"/><path class="ygrid crisp" transform="translate(0,127)" d="M60,0h1025" style="stroke: rgb(0, 0, 0); stroke-opacity: 0.05; stroke-width: 1px;"/></g></g><g class="zerolinelayer"><path class="yzl zl crisp" transform="translate(0,435)" d="M60,0h1025" style="stroke: rgb(0, 0, 0); stroke-opacity: 0.05; stroke-width: 1px;"/></g><g class="layer-between"><g class="shapelayer"/><g class="imagelayer"/></g><path class="xlines-below"/><path class="ylines-below"/><g class="overlines-below"/><g class="xaxislayer-below"/><g class="yaxislayer-below"/><g class="overaxes-below"/><g class="overplot"><g class="xy" transform="translate(60,50)" clip-path="url(#clip607348xyplot)"><g class="scatterlayer mlayer"><g class="trace scatter trace8f9357" style="stroke-miterlimit: 2; opacity: 1;"><g class="fills"/><g class="errorbars"/><g class="lines"><path class="js-line" d="M0,204.3L13.67,203.84L20.5,204.83L34.17,205.48L41,202.87L47.83,202.76L54.67,203.68L61.5,204.9L68.33,204.35L88.83,206.94L95.67,203.72L102.5,204.02L109.33,203.47L123,204.79L129.83,203.56L136.67,206.68L143.5,204.1L150.33,204.51L157.17,203.58L177.67,205.15L184.5,204.33L198.17,204.32L205,206.31L218.67,204.13L225.5,204.08L232.33,205.53L239.17,205.73L246,204.8L252.83,204.85L259.67,204.64L266.5,205.25L273.33,204.85L280.17,205.9L314.33,204.54L321.17,202.34L334.83,206.34L341.67,204.21L348.5,205.53L355.33,203.8L362.17,205.84L369,204.01L375.83,205.46L382.67,205.52L389.5,205.02L396.33,203.3L403.17,204.97L410,205.33L423.67,204.11L430.5,205.71L444.17,205.33L451,204.68L457.83,205.96L464.67,204.93L471.5,204.37L478.33,205.57L485.17,204L492,206.09L498.83,204.64L505.67,205.62L512.5,206.22L519.33,204.59L526.17,205.24L533,204.58L539.83,205.58L546.67,205.51L553.5,204.33L560.33,205.56L567.17,205.77L574,204.36L580.83,206.31L587.67,204L594.5,205.22L601.33,204.74L608.17,204.47L615,205L621.83,205.66L628.67,204.4L635.5,205.3L642.33,204.6L656,206.28L662.83,203.06L669.67,206.33L676.5,206.57L690.17,204.37L697,204.11L703.83,203.67L710.67,205.6L717.5,206.09L724.33,204.07L738,205.65L744.83,204.36L751.67,206.87L758.5,203.12L765.33,204.6L772.17,203.6L779,205.51L785.83,205.93L792.67,204.3L799.5,204.33L806.33,204.96L813.17,204.27L820,205.75L826.83,204.05L833.67,205.86L840.5,204.97L847.33,207.35L854.17,204.54" style="vector-effect: none; fill: none; stroke: rgb(124, 181, 236); stroke-opacity: 1; stroke-width: 2px; opacity: 1;"/></g><g class="points"/><g class="text"/></g><g class="trace scatter trace38bc32" style="stroke-miterlimit: 2; opacity: 1;"><g class="fills"/><g class="errorbars"/><g class="lines"><path class="js-line" d="M0,228.06L6.83,230.73L13.67,230.54L20.5,226.91L27.33,231.14L34.17,229.99L41,230.28L47.83,227.65L54.67,230.12L61.5,230.4L68.33,229.43L88.83,228.82L95.67,229.45L102.5,227L109.33,229.08L116.17,230.74L123,229.35L129.83,231.19L136.67,230.6L143.5,229.2L150.33,230.49L157.17,229.42L164,226.41L177.67,228.88L184.5,227.46L191.33,228.77L198.17,229.11L205,227.52L211.83,228.71L218.67,228.34L225.5,228.77L239.17,230.12L246,228.45L252.83,230.37L259.67,229.12L266.5,227.34L273.33,229.31L280.17,229.45L287,227.75L300.67,228.95L307.5,230.8L328,227.18L334.83,231.28L341.67,229.52L348.5,229.54L362.17,230.34L369,228.06L389.5,229.34L396.33,231.1L403.17,229.09L410,228.09L423.67,229.57L430.5,229.26L437.33,230.77L444.17,228.43L451,228.34L457.83,229.25L478.33,227.92L485.17,231.19L498.83,227.01L505.67,228.26L519.33,228.72L526.17,229.99L533,230.03L539.83,228.58L553.5,228.66L560.33,231.73L580.83,228.34L587.67,229.59L608.17,229.8L615,230.86L628.67,226.2L635.5,228.63L642.33,230.17L649.17,228.92L656,228.89L662.83,230.48L669.67,230.05L676.5,228.63L690.17,229.51L697,228.78L703.83,228.37L710.67,229.2L717.5,226.52L724.33,230.46L738,226.98L744.83,229.46L751.67,230.9L758.5,229.11L765.33,229.46L772.17,227.2L779,228.35L785.83,228.12L792.67,228.8L799.5,227.75L806.33,227.69L813.17,229.2L820,227.29L826.83,228.52L833.67,228.18L840.5,229.03L847.33,227.95L854.17,228.34L867.83,227.97L874.67,229.8L881.5,228.51L888.33,228.46L895.17,228.62L902,227.78L915.67,227.69L922.5,229.15L929.33,228.09L936.17,229.94L943,227.41L949.83,228.94L956.67,228.48L963.5,233.08L970.33,229.49L977.17,228.08L984,230.11L990.83,228.65L997.67,229L1004.5,230.16L1011.33,228.69L1018.17,230.11L1025,228.35" style="vector-effect: none; fill: none; stroke: rgb(67, 67, 72); stroke-opacity: 1; stroke-width: 2px; opacity: 1;"/></g><g class="points"/><g class="text"/></g></g></g></g><path class="xlines-above crisp" d="M0,0" style="fill: none;"/><path class="ylines-above crisp" d="M0,0" style="fill: none;"/><g class="overlines-above"/><g class="xaxislayer-above"><g class="xtick"><text text-anchor="middle" x="0" y="451" transform="translate(189.83,0)" style="font-family: 'Lucida Grande', 'Open Sans', verdana, arial, sans-serif; font-size: 10px; fill: rgb(0, 0, 0); fill-opacity: 1; white-space: pre; opacity: 1;">20</text></g><g class="xtick"><text text-anchor="middle" x="0" y="451" style="font-family: 'Lucida Grande', 'Open Sans', verdana, arial, sans-serif; font-size: 10px; fill: rgb(0, 0, 0); fill-opacity: 1; white-space: pre; opacity: 1;" transform="translate(326.5,0)">40</text></g><g class="xtick"><text text-anchor="middle" x="0" y="451" style="font-family: 'Lucida Grande', 'Open Sans', verdana, arial, sans-serif; font-size: 10px; fill: rgb(0, 0, 0); fill-opacity: 1; white-space: pre; opacity: 1;" transform="translate(463.17,0)">60</text></g><g class="xtick"><text text-anchor="middle" x="0" y="451" style="font-family: 'Lucida Grande', 'Open Sans', verdana, arial, sans-serif; font-size: 10px; fill: rgb(0, 0, 0); fill-opacity: 1; white-space: pre; opacity: 1;" transform="translate(599.83,0)">80</text></g><g class="xtick"><text text-anchor="middle" x="0" y="451" style="font-family: 'Lucida Grande', 'Open Sans', verdana, arial, sans-serif; font-size: 10px; fill: rgb(0, 0, 0); fill-opacity: 1; white-space: pre; opacity: 1;" transform="translate(736.5,0)">100</text></g><g class="xtick"><text text-anchor="middle" x="0" y="451" style="font-family: 'Lucida Grande', 'Open Sans', verdana, arial, sans-serif; font-size: 10px; fill: rgb(0, 0, 0); fill-opacity: 1; white-space: pre; opacity: 1;" transform="translate(873.17,0)">120</text></g><g class="xtick"><text text-anchor="middle" x="0" y="451" style="font-family: 'Lucida Grande', 'Open Sans', verdana, arial, sans-serif; font-size: 10px; fill: rgb(0, 0, 0); fill-opacity: 1; white-space: pre; opacity: 1;" transform="translate(1009.83,0)">140</text></g></g><g class="yaxislayer-above"><g class="ytick"><text text-anchor="end" x="54" y="3.5" transform="translate(0,435)" style="font-family: 'Lucida Grande', 'Open Sans', verdana, arial, sans-serif; font-size: 10px; fill: rgb(0, 0, 0); fill-opacity: 1; white-space: pre; opacity: 1;">0%</text></g><g class="ytick"><text text-anchor="end" x="54" y="3.5" style="font-family: 'Lucida Grande', 'Open Sans', verdana, arial, sans-serif; font-size: 10px; fill: rgb(0, 0, 0); fill-opacity: 1; white-space: pre; opacity: 1;" transform="translate(0,358)">20%</text></g><g class="ytick"><text text-anchor="end" x="54" y="3.5" style="font-family: 'Lucida Grande', 'Open Sans', verdana, arial, sans-serif; font-size: 10px; fill: rgb(0, 0, 0); fill-opacity: 1; white-space: pre; opacity: 1;" transform="translate(0,281)">40%</text></g><g class="ytick"><text text-anchor="end" x="54" y="3.5" style="font-family: 'Lucida Grande', 'Open Sans', verdana, arial, sans-serif; font-size: 10px; fill: rgb(0, 0, 0); fill-opacity: 1; white-space: pre; opacity: 1;" transform="translate(0,204)">60%</text></g><g class="ytick"><text text-anchor="end" x="54" y="3.5" style="font-family: 'Lucida Grande', 'Open Sans', verdana, arial, sans-serif; font-size: 10px; fill: rgb(0, 0, 0); fill-opacity: 1; white-space: pre; opacity: 1;" transform="translate(0,127)">80%</text></g><g class="ytick"><text text-anchor="end" x="54" y="3.5" style="font-family: 'Lucida Grande', 'Open Sans', verdana, arial, sans-serif; font-size: 10px; fill: rgb(0, 0, 0); fill-opacity: 1; white-space: pre; opacity: 1;" transform="translate(0,50)">100%</text></g></g><g class="overaxes-above"/></g></g><g class="polarlayer"/><g class="smithlayer"/><g class="ternarylayer"/><g class="geolayer"/><g class="funnelarealayer"/><g class="pielayer"/><g class="iciclelayer"/><g class="treemaplayer"/><g class="sunburstlayer"/><g class="glimages"/><defs id="topdefs-607348"><g class="clips"/></defs><g class="layer-above"><g class="imagelayer"/><g class="shapelayer"/></g><g class="infolayer"><g class="g-gtitle"><text class="gtitle" x="550" y="25" text-anchor="middle" dy="0em" style="opacity: 1; font-family: 'Lucida Grande', 'Open Sans', verdana, arial, sans-serif; font-size: 20px; fill: rgb(68, 68, 68); fill-opacity: 1; white-space: pre;"><tspan class="line" dy="0em" x="550" y="25">Fastp: Read GC Content</tspan><tspan class="line" dy="1.3em" x="550" y="25">​<tspan style="font-size:70%" dy="-0.6em">Read 1: Before filtering, 2 samples</tspan><tspan dy="0.42em">​</tspan></tspan></text></g><g class="g-xtitle"><text class="xtitle" x="572.5" y="487" text-anchor="middle" style="opacity: 0.3; font-family: 'Lucida Grande', 'Open Sans', verdana, arial, sans-serif; font-size: 14px; fill: rgb(0, 0, 0); fill-opacity: 1; white-space: pre;">Read Position</text></g><g class="g-ytitle"><text class="ytitle" transform="rotate(-90,22,242.5)" x="22" y="242.5" text-anchor="middle" style="opacity: 0.3; font-family: 'Lucida Grande', 'Open Sans', verdana, arial, sans-serif; font-size: 14px; fill: rgb(0, 0, 0); fill-opacity: 1; white-space: pre;">R1 Before filtering: Base Content Percent</text></g></g></svg>