<svg class="main-svg" xmlns="http://www.w3.org/2000/svg" xmlns:xlink="http://www.w3.org/1999/xlink" width="2200" height="1000" style="" viewBox="0 0 1100 500"><rect x="0" y="0" width="1100" height="500" style="fill: rgb(255, 255, 255); fill-opacity: 1;"/><defs id="defs-8787ac"><g class="clips"><clipPath id="clip8787acxyplot" class="plotclip"><rect width="1025" height="385"/></clipPath><clipPath class="axesclip" id="clip8787acx"><rect x="60" y="0" width="1025" height="500"/></clipPath><clipPath class="axesclip" id="clip8787acy"><rect x="0" y="50" width="1100" height="385"/></clipPath><clipPath class="axesclip" id="clip8787acxy"><rect x="60" y="50" width="1025" height="385"/></clipPath></g><g class="gradients"/><g class="patterns"/></defs><g class="bglayer"/><g class="layer-below"><g class="imagelayer"/><g class="shapelayer"/></g><g class="cartesianlayer"><g class="subplot xy"><g class="layer-subplot"><g class="shapelayer"/><g class="imagelayer"/></g><g class="minor-gridlayer"><g class="x"/><g class="y"/></g><g class="gridlayer"><g class="x"><path class="xgrid crisp" transform="translate(189.83,0)" d="M0,50v385" style="stroke: rgb(0, 0, 0); stroke-opacity: 0.05; stroke-width: 1px;"/><path class="xgrid crisp" transform="translate(326.5,0)" d="M0,50v385" style="stroke: rgb(0, 0, 0); stroke-opacity: 0.05; stroke-width: 1px;"/><path class="xgrid crisp" transform="translate(463.17,0)" d="M0,50v385" style="stroke: rgb(0, 0, 0); stroke-opacity: 0.05; stroke-width: 1px;"/><path class="xgrid crisp" transform="translate(599.83,0)" d="M0,50v385" style="stroke: rgb(0, 0, 0); stroke-opacity: 0.05; stroke-width: 1px;"/><path class="xgrid crisp" transform="translate(736.5,0)" d="M0,50v385" style="stroke: rgb(0, 0, 0); stroke-opacity: 0.05; stroke-width: 1px;"/><path class="xgrid crisp" transform="translate(873.17,0)" d="M0,50v385" style="stroke: rgb(0, 0, 0); stroke-opacity: 0.05; stroke-width: 1px;"/><path class="xgrid crisp" transform="translate(1009.83,0)" d="M0,50v385" style="stroke: rgb(0, 0, 0); stroke-opacity: 0.05; stroke-width: 1px;"/></g><g class="y"><path class="ygrid crisp" transform="translate(0,358)" d="M60,0h1025" style="stroke: rgb(0, 0, 0); stroke-opacity: 0.05; stroke-width: 1px;"/><path class="ygrid crisp" transform="translate(0,281)" d="M60,0h1025" style="stroke: rgb(0, 0, 0); stroke-opacity: 0.05; stroke-width: 1px;"/><path class="ygrid crisp" transform="translate(0,204)" d="M60,0h1025" style="stroke: rgb(0, 0, 0); stroke-opacity: 0.05; stroke-width: 1px;"/><path class="ygrid crisp" transform="translate(0,127)" d="M60,0h1025" style="stroke: rgb(0, 0, 0); stroke-opacity: 0.05; stroke-width: 1px;"/></g></g><g class="zerolinelayer"><path class="yzl zl crisp" transform="translate(0,435)" d="M60,0h1025" style="stroke: rgb(0, 0, 0); stroke-opacity: 0.05; stroke-width: 1px;"/></g><g class="layer-between"><g class="shapelayer"/><g class="imagelayer"/></g><path class="xlines-below"/><path class="ylines-below"/><g class="overlines-below"/><g class="xaxislayer-below"/><g class="yaxislayer-below"/><g class="overaxes-below"/><g class="overplot"><g class="xy" transform="translate(60,50)" clip-path="url(#clip8787acxyplot)"><g class="scatterlayer mlayer"><g class="trace scatter tracef7138f" style="stroke-miterlimit: 2; opacity: 1;"><g class="fills"/><g class="errorbars"/><g class="lines"><path class="js-line" d="M0,205.16L13.67,204.79L20.5,204.57L27.33,205.08L34.17,203.62L47.83,203.93L54.67,205.34L61.5,204.63L68.33,205.37L95.67,205.28L102.5,203.91L116.17,205.35L123,205.46L129.83,205.96L136.67,204.88L143.5,204.75L150.33,206.75L157.17,204.97L164,204.56L177.67,204.76L184.5,206.34L191.33,204.33L198.17,205.59L211.83,204.96L218.67,205.44L225.5,204.94L232.33,205.85L246,204.52L252.83,206.24L259.67,206.25L266.5,203.94L273.33,207.01L280.17,204.74L287,204.5L293.83,205.12L314.33,206.51L321.17,206.59L328,205.34L334.83,205.31L341.67,203.9L348.5,205.12L355.33,203.92L362.17,206.15L369,205.61L375.83,206.56L382.67,206.66L389.5,204.5L396.33,205.01L403.17,204.64L423.67,206.65L430.5,204.6L444.17,205.36L451,204.6L471.5,204.23L478.33,204.21L485.17,203.39L492,205.39L498.83,205.75L505.67,204.82L533,205.13L539.83,203.34L546.67,204.82L553.5,204.49L560.33,204.62L567.17,205.82L574,206.21L580.83,204.69L601.33,204.85L608.17,203.64L615,204.49L621.83,206.6L628.67,206.19L635.5,206.83L642.33,204.4L649.17,203.53L662.83,205.03L669.67,204.38L676.5,205.37L683.33,204.04L690.17,205.35L697,205.85L703.83,206.37L710.67,205.56L724.33,204.17L731.17,204.92L738,205.21L744.83,204.03L751.67,205.54L758.5,204.4L765.33,205.37L772.17,203.41L785.83,205.5L792.67,203.52L799.5,206.44L806.33,204.88L813.17,203.58L820,204.93L826.83,205.97L833.67,205.11L840.5,203.88L847.33,204.96L854.17,204.76" style="vector-effect: none; fill: none; stroke: rgb(124, 181, 236); stroke-opacity: 1; stroke-width: 2px; opacity: 1;"/></g><g class="points"/><g class="text"/></g><g class="trace scatter trace2e96b4" style="stroke-miterlimit: 2; opacity: 1;"><g class="fills"/><g class="errorbars"/><g class="lines"><path class="js-line" d="M0,228.69L6.83,227.66L13.67,228.4L27.33,228.63L34.17,231L41,230.98L47.83,226.97L54.67,229.05L61.5,228.19L75.17,230.91L82,232.46L88.83,229.86L95.67,228.84L109.33,230.41L116.17,229.63L123,232.46L129.83,231.35L136.67,229.3L143.5,230.95L150.33,227.95L157.17,230.83L164,229.11L170.83,230.12L184.5,228.5L191.33,228.44L198.17,228.1L205,226.43L211.83,228.67L218.67,229.47L225.5,230.83L232.33,230.45L246,231.04L252.83,229.59L259.67,228.71L266.5,231.06L287,228L293.83,227.96L300.67,228.06L307.5,231.02L314.33,229.93L321.17,232.78L328,229.46L334.83,229.7L341.67,228.71L348.5,232.27L362.17,229.38L369,226.76L389.5,229.66L396.33,231.86L403.17,229.04L410,232.9L416.83,229.95L423.67,229.03L430.5,229.45L437.33,228.84L444.17,230.69L451,228L457.83,229.15L464.67,227.02L471.5,228.23L478.33,227.92L485.17,227.94L492,230.83L498.83,229.99L505.67,228.23L519.33,229.49L526.17,231.65L533,228.84L539.83,229.7L546.67,227.75L553.5,231.55L560.33,229.11L567.17,230.56L574,230.87L580.83,228.78L587.67,226.3L594.5,227.37L601.33,228.46L608.17,231.63L628.67,225.71L635.5,227.47L642.33,229.25L649.17,232.18L656,227.61L662.83,230.38L669.67,228.49L676.5,228.01L683.33,227.78L690.17,228.83L697,227.23L703.83,231.45L710.67,227.32L717.5,230.54L724.33,230.76L731.17,227.7L738,229.89L744.83,229.68L751.67,229.3L758.5,230.54L765.33,230.66L772.17,228.38L779,227.6L785.83,225.9L799.5,229.15L806.33,230.05L813.17,228.17L820,229.89L826.83,228.77L833.67,229.94L840.5,230.84L847.33,229.75L854.17,229.15L861,229.53L867.83,231.96L874.67,228.07L881.5,229.64L888.33,227.4L895.17,229.4L902,230.44L908.83,230.7L915.67,227.56L922.5,228.48L929.33,227.98L943,226.89L949.83,228.36L963.5,229.45L970.33,231.7L977.17,226.46L984,226.61L990.83,230.26L997.67,229.97L1018.17,228.17L1025,230.71" style="vector-effect: none; fill: none; stroke: rgb(67, 67, 72); stroke-opacity: 1; stroke-width: 2px; opacity: 1;"/></g><g class="points"/><g class="text"/></g></g></g></g><path class="xlines-above crisp" d="M0,0" style="fill: none;"/><path class="ylines-above crisp" d="M0,0" style="fill: none;"/><g class="overlines-above"/><g class="xaxislayer-above"><g class="xtick"><text text-anchor="middle" x="0" y="451" transform="translate(189.83,0)" style="font-family: 'Lucida Grande', 'Open Sans', verdana, arial, sans-serif; font-size: 10px; fill: rgb(0, 0, 0); fill-opacity: 1; white-space: pre; opacity: 1;">20</text></g><g class="xtick"><text text-anchor="middle" x="0" y="451" style="font-family: 'Lucida Grande', 'Open Sans', verdana, arial, sans-serif; font-size: 10px; fill: rgb(0, 0, 0); fill-opacity: 1; white-space: pre; opacity: 1;" transform="translate(326.5,0)">40</text></g><g class="xtick"><text text-anchor="middle" x="0" y="451" style="font-family: 'Lucida Grande', 'Open Sans', verdana, arial, sans-serif; font-size: 10px; fill: rgb(0, 0, 0); fill-opacity: 1; white-space: pre; opacity: 1;" transform="translate(463.17,0)">60</text></g><g class="xtick"><text text-anchor="middle" x="0" y="451" style="font-family: 'Lucida Grande', 'Open Sans', verdana, arial, sans-serif; font-size: 10px; fill: rgb(0, 0, 0); fill-opacity: 1; white-space: pre; opacity: 1;" transform="translate(599.83,0)">80</text></g><g class="xtick"><text text-anchor="middle" x="0" y="451" style="font-family: 'Lucida Grande', 'Open Sans', verdana, arial, sans-serif; font-size: 10px; fill: rgb(0, 0, 0); fill-opacity: 1; white-space: pre; opacity: 1;" transform="translate(736.5,0)">100</text></g><g class="xtick"><text text-anchor="middle" x="0" y="451" style="font-family: 'Lucida Grande', 'Open Sans', verdana, arial, sans-serif; font-size: 10px; fill: rgb(0, 0, 0); fill-opacity: 1; white-space: pre; opacity: 1;" transform="translate(873.17,0)">120</text></g><g class="xtick"><text text-anchor="middle" x="0" y="451" style="font-family: 'Lucida Grande', 'Open Sans', verdana, arial, sans-serif; font-size: 10px; fill: rgb(0, 0, 0); fill-opacity: 1; white-space: pre; opacity: 1;" transform="translate(1009.83,0)">140</text></g></g><g class="yaxislayer-above"><g class="ytick"><text text-anchor="end" x="54" y="3.5" transform="translate(0,435)" style="font-family: 'Lucida Grande', 'Open Sans', verdana, arial, sans-serif; font-size: 10px; fill: rgb(0, 0, 0); fill-opacity: 1; white-space: pre; opacity: 1;">0%</text></g><g class="ytick"><text text-anchor="end" x="54" y="3.5" style="font-family: 'Lucida Grande', 'Open Sans', verdana, arial, sans-serif; font-size: 10px; fill: rgb(0, 0, 0); fill-opacity: 1; white-space: pre; opacity: 1;" transform="translate(0,358)">20%</text></g><g class="ytick"><text text-anchor="end" x="54" y="3.5" style="font-family: 'Lucida Grande', 'Open Sans', verdana, arial, sans-serif; font-size: 10px; fill: rgb(0, 0, 0); fill-opacity: 1; white-space: pre; opacity: 1;" transform="translate(0,281)">40%</text></g><g class="ytick"><text text-anchor="end" x="54" y="3.5" style="font-family: 'Lucida Grande', 'Open Sans', verdana, arial, sans-serif; font-size: 10px; fill: rgb(0, 0, 0); fill-opacity: 1; white-space: pre; opacity: 1;" transform="translate(0,204)">60%</text></g><g class="ytick"><text text-anchor="end" x="54" y="3.5" style="font-family: 'Lucida Grande', 'Open Sans', verdana, arial, sans-serif; font-size: 10px; fill: rgb(0, 0, 0); fill-opacity: 1; white-space: pre; opacity: 1;" transform="translate(0,127)">80%</text></g><g class="ytick"><text text-anchor="end" x="54" y="3.5" style="font-family: 'Lucida Grande', 'Open Sans', verdana, arial, sans-serif; font-size: 10px; fill: rgb(0, 0, 0); fill-opacity: 1; white-space: pre; opacity: 1;" transform="translate(0,50)">100%</text></g></g><g class="overaxes-above"/></g></g><g class="polarlayer"/><g class="smithlayer"/><g class="ternarylayer"/><g class="geolayer"/><g class="funnelarealayer"/><g class="pielayer"/><g class="iciclelayer"/><g class="treemaplayer"/><g class="sunburstlayer"/><g class="glimages"/><defs id="topdefs-8787ac"><g class="clips"/></defs><g class="layer-above"><g class="imagelayer"/><g class="shapelayer"/></g><g class="infolayer"><g class="g-gtitle"><text class="gtitle" x="550" y="25" text-anchor="middle" dy="0em" style="opacity: 1; font-family: 'Lucida Grande', 'Open Sans', verdana, arial, sans-serif; font-size: 20px; fill: rgb(68, 68, 68); fill-opacity: 1; white-space: pre;"><tspan class="line" dy="0em" x="550" y="25">Fastp: Read GC Content</tspan><tspan class="line" dy="1.3em" x="550" y="25">​<tspan style="font-size:70%" dy="-0.6em">Read 2: After filtering, 2 samples</tspan><tspan dy="0.42em">​</tspan></tspan></text></g><g class="g-xtitle"><text class="xtitle" x="572.5" y="487" text-anchor="middle" style="opacity: 0.3; font-family: 'Lucida Grande', 'Open Sans', verdana, arial, sans-serif; font-size: 14px; fill: rgb(0, 0, 0); fill-opacity: 1; white-space: pre;">Read Position</text></g><g class="g-ytitle"><text class="ytitle" transform="rotate(-90,22,242.5)" x="22" y="242.5" text-anchor="middle" style="opacity: 0.3; font-family: 'Lucida Grande', 'Open Sans', verdana, arial, sans-serif; font-size: 14px; fill: rgb(0, 0, 0); fill-opacity: 1; white-space: pre;">R2 After filtering: Base Content Percent</text></g></g></svg>